<svg aria-hidden="true" style="width:0;height:0;position:absolute;overflow:hidden" xmlns="http://www.w3.org/2000/svg"><defs><symbol id="search" viewBox="0 0 32 32"><path d="m31.805 29.919-9.296-9.296a12.603 12.603 0 0 0 2.824-7.957c0-6.984-5.682-12.667-12.667-12.667S-.001 5.681-.001 12.666c0 6.984 5.682 12.667 12.667 12.667 3.013 0 5.78-1.061 7.957-2.824l9.296 9.296c.26.26.682.26.943 0l.942-.943a.668.668 0 0 0 0-.943zm-19.138-7.252c-5.514 0-10-4.486-10-10s4.486-10 10-10 10 4.486 10 10-4.486 10-10 10z"/></symbol><symbol id="print" viewBox="0 0 38 32"><path d="M35.634 7.79H31.9V1.148A1.16 1.16 0 0 0 30.727 0H10.816a1.16 1.16 0 0 0-1.173 1.148V7.79H5.91c-1.51 0-2.738 1.201-2.738 2.678v11.546c0 1.477 1.228 2.678 2.738 2.678h3.734v6.161a1.16 1.16 0 0 0 1.173 1.148h19.911a1.16 1.16 0 0 0 1.173-1.148v-6.161h3.734c1.509 0 2.738-1.201 2.738-2.678V10.468c0-1.476-1.228-2.678-2.738-2.678zM11.99 2.295h17.564v5.494H11.99V2.295zm17.564 27.41H11.99v-9.389h17.564v9.389zm1.173-15.176H27.74c-.648 0-1.173-.514-1.173-1.148s.525-1.148 1.173-1.148h2.987c.648 0 1.173.514 1.173 1.148s-.525 1.148-1.173 1.148z"/></symbol><symbol id="plus" viewBox="0 0 32 32"><path d="M16 0v32zM0 16h32z"/></symbol><symbol id="minus" viewBox="0 0 160 32"><path d="M16 0v32zM0 16h32z"/></symbol><symbol id="menu-gamburger" viewBox="0 0 47 32"><path d="M0 .479h47.238v4.049H0V.479zM0 13.976h47.238v4.049H0v-4.049zM0 27.472h47.238v4.049H0v-4.049z"/></symbol><symbol id="list-menu" viewBox="0 0 38 32"><path d="M0 1.6h6.1v6.152H0V1.6zM0 12.928h6.1v6.152H0v-6.152zM0 24.248h6.1V30.4H0v-6.152zM12.503 1.6H38.4v6.136H12.503V1.6zM12.503 12.904H38.4v6.136H12.503v-6.136zM12.503 24.208H38.4v6.136H12.503v-6.136z"/></symbol><symbol id="close-cross" viewBox="0 0 32 32"><path d="M0 29.333 29.227.106l2.505 2.505L2.505 31.838 0 29.333z"/><path d="m2.667 0 29.227 29.227-2.505 2.505L.162 2.505 2.667 0z"/></symbol><symbol id="clock" viewBox="0 0 29 32"><path d="M14.659 1.333C6.556 1.333 0 7.896 0 16s6.556 14.667 14.659 14.667c8.103 0 14.674-6.563 14.674-14.667S22.762 1.333 14.659 1.333zm.008 26.4C8.184 27.733 2.934 22.482 2.934 16S8.185 4.267 14.667 4.267C21.15 4.267 26.4 9.518 26.4 16s-5.251 11.733-11.733 11.733z"/><path d="M16 16.044V6.667h-2.667v10.907l9.333 3.76 1.333-2.667-8-2.623z"/></symbol><symbol id="down-arrow" viewBox="0 0 53 32"><path d="M53.333 0H0l26.667 32L53.334 0z"/></symbol><symbol id="right-arrow" viewBox="0 0 21 32"><path d="M0 0v32l21.333-16L0 0z"/></symbol></defs></svg>