<svg aria-hidden="true" style="position: absolute; width: 0; height: 0; overflow: hidden;" version="1.1" xmlns="http://www.w3.org/2000/svg" xmlns:xlink="http://www.w3.org/1999/xlink">
<defs>
<symbol id="search" viewBox="0 0 32 32">
<path d="M31.805 29.919l-9.296-9.296c1.763-2.177 2.824-4.944 2.824-7.957 0-6.984-5.682-12.667-12.667-12.667s-12.667 5.682-12.667 12.667c0 6.984 5.682 12.667 12.667 12.667 3.013 0 5.78-1.061 7.957-2.824l9.296 9.296c0.26 0.26 0.682 0.26 0.943 0l0.942-0.943c0.26-0.26 0.26-0.682 0-0.943zM12.667 22.667c-5.514 0-10-4.486-10-10s4.486-10 10-10c5.514 0 10 4.486 10 10s-4.486 10-10 10z"></path>
</symbol>
<symbol id="print" viewBox="0 0 38 32">
<path d="M35.634 7.79h-3.734v-6.642c0-0.634-0.525-1.148-1.173-1.148h-19.911c-0.648 0-1.173 0.514-1.173 1.148v6.642h-3.733c-1.51 0-2.738 1.201-2.738 2.678v11.546c0 1.477 1.228 2.678 2.738 2.678h3.734v6.161c0 0.634 0.525 1.148 1.173 1.148h19.911c0.648 0 1.173-0.514 1.173-1.148v-6.161h3.734c1.509 0 2.738-1.201 2.738-2.678v-11.546c0-1.476-1.228-2.678-2.738-2.678zM11.99 2.295h17.564v5.494h-17.564v-5.494zM29.554 29.705h-17.564c0-0.224 0-9.112 0-9.389h17.564c-0 0.284-0 9.174-0 9.389zM30.727 14.529h-2.987c-0.648 0-1.173-0.514-1.173-1.148s0.525-1.148 1.173-1.148h2.987c0.648 0 1.173 0.514 1.173 1.148s-0.525 1.148-1.173 1.148z"></path>
</symbol>
<symbol id="plus" viewBox="0 0 32 32">
<path d="M16 0v32zM0 16h32z"></path>
</symbol>
<symbol id="minus" viewBox="0 0 160 32">
<path d="M16 0v32zM0 16h32z"></path>
</symbol>
<symbol id="menu-gamburger" viewBox="0 0 47 32">
<path d="M0 0.479h47.238v4.049h-47.238v-4.049z"></path>
<path d="M0 13.976h47.238v4.049h-47.238v-4.049z"></path>
<path d="M0 27.472h47.238v4.049h-47.238v-4.049z"></path>
</symbol>
<symbol id="list-menu" viewBox="0 0 38 32">
<path d="M0 1.6h6.1v6.152h-6.1v-6.152z"></path>
<path d="M0 12.928h6.1v6.152h-6.1v-6.152z"></path>
<path d="M0 24.248h6.1v6.152h-6.1v-6.152z"></path>
<path d="M12.503 1.6h25.897v6.136h-25.897v-6.136z"></path>
<path d="M12.503 12.904h25.897v6.136h-25.897v-6.136z"></path>
<path d="M12.503 24.208h25.897v6.136h-25.897v-6.136z"></path>
</symbol>
<symbol id="close-cross" viewBox="0 0 32 32">
<path d="M0 29.333l29.227-29.227 2.505 2.505-29.227 29.227-2.505-2.505z"></path>
<path d="M2.667 0l29.227 29.227-2.505 2.505-29.227-29.227 2.505-2.505z"></path>
</symbol>
<symbol id="clock" viewBox="0 0 29 32">
<path d="M14.659 1.333c-8.103 0-14.659 6.563-14.659 14.667s6.556 14.667 14.659 14.667c8.103 0 14.674-6.563 14.674-14.667s-6.571-14.667-14.674-14.667zM14.667 27.733c-6.483 0-11.733-5.251-11.733-11.733s5.251-11.733 11.733-11.733c6.483 0 11.733 5.251 11.733 11.733s-5.251 11.733-11.733 11.733z"></path>
<path d="M16 16.044v-9.377h-2.667v10.907l9.333 3.76 1.333-2.667-8-2.623z"></path>
</symbol>

<symbol id="down-arrow" viewBox="0 0 53 32">
<path d="M53.333 0h-53.333l26.667 32 26.667-32z"></path>
</symbol>
<symbol id="right-arrow" viewBox="0 0 21 32">
<path d="M0 0v32l21.333-16-21.333-16z"></path>
</symbol>
</defs>
</svg>
